PathFileType	4	(X/Y/Z)	C:\Users\Basilio\Documents\Thesis Gigler\squatting_fais\c3dfiles\039\SLS_pre_front2\markers_experimental.trc
DataRate	CameraRate	NumFrames	NumMarkers	Units	OrigDataRate	OrigDataStartFrame	OrigNumFrames
200.000000	200.000000	4	62	mm	200.000000	1576	2102
Frame#	Time	FHD			LBHD			RBHD			C7			T10			CLAV			LSHO			LUUPA			LMUPA			LDUPA			LLEP			LMEP			LRAD			LUL			LRFIN			RSHO			RUPA1			RMUPA			RDUPA			RLEP			RMEP			RRAD			RUL			RUFIN			LASI			RASI			USACR			LSACR			RSACR			LTHI1			LTHI2			LTHI3			LTHI4			LLFC			LMFC			LTIB1			LTIB2			LTIB3			LTIB4			LLMAL			LMMAL			LHEE			LMT1			LMT2			LMT5			RTHI			RTHI2			RTHI3			RTHI4			RLFC			RMFC			RTIB1			RTIB2			RTIB3			RTIB4			RLMAL			RMMAL			RHEE			RMT1			RMT2			RMT5			*61			
		X1	Y1	Z1	X2	Y2	Z2	X3	Y3	Z3	X4	Y4	Z4	X5	Y5	Z5	X6	Y6	Z6	X7	Y7	Z7	X8	Y8	Z8	X9	Y9	Z9	X10	Y10	Z10	X11	Y11	Z11	X12	Y12	Z12	X13	Y13	Z13	X14	Y14	Z14	X15	Y15	Z15	X16	Y16	Z16	X17	Y17	Z17	X18	Y18	Z18	X19	Y19	Z19	X20	Y20	Z20	X21	Y21	Z21	X22	Y22	Z22	X23	Y23	Z23	X24	Y24	Z24	X25	Y25	Z25	X26	Y26	Z26	X27	Y27	Z27	X28	Y28	Z28	X29	Y29	Z29	X30	Y30	Z30	X31	Y31	Z31	X32	Y32	Z32	X33	Y33	Z33	X34	Y34	Z34	X35	Y35	Z35	X36	Y36	Z36	X37	Y37	Z37	X38	Y38	Z38	X39	Y39	Z39	X40	Y40	Z40	X41	Y41	Z41	X42	Y42	Z42	X43	Y43	Z43	X44	Y44	Z44	X45	Y45	Z45	X46	Y46	Z46	X47	Y47	Z47	X48	Y48	Z48	X49	Y49	Z49	X50	Y50	Z50	X51	Y51	Z51	X52	Y52	Z52	X53	Y53	Z53	X54	Y54	Z54	X55	Y55	Z55	X56	Y56	Z56	X57	Y57	Z57	X58	Y58	Z58	X59	Y59	Z59	X60	Y60	Z60	X61	Y61	Z61	X62	Y62	Z62	

1577	7.88	-436.2726440429689	1787.837768554688	-598.7164916992189	-587.0837402343751	1746.1220703125	-722.7915649414064	-561.8299560546876	1742.28271484375	-583.5046386718751	-592.9865722656251	1586.490234375	-686.1256103515626	-581.5186157226564	1271.509155273438	-733.9984741210939	-447.8692932128907	1528.674926757813	-696.0270385742189	-499.6056213378907	1601.695068359375	-866.2728271484377	-476.5571899414064	1471.44921875	-1053.134765625	-431.947967529297	1491.309936523438	-1061.485595703125	-434.1936645507814	1448.202392578125	-1103.297729492188	-386.7628173828126	1428.311889648438	-1149.179077148438	-383.5520629882813	1354.222290039063	-1104.269287109375	-98.25942993164065	1403.267944335938	-1099.39013671875	-103.6065063476563	1394.356811523438	-1174.353759765625	-12.96392250061036	1413.443359375	-1097.042846679688	-467.6251525878907	1556.406860351563	-513.2139282226564	-377.9887390136719	1384.197998046875	-402.7752990722657	-333.8566284179688	1406.449584960938	-402.7760314941407	-319.7756042480469	1350.28369140625	-385.7064819335939	-256.8138732910157	1335.745971679688	-375.7810058593751	-267.2724304199219	1282.953002929688	-433.0038452148439	36.13967895507813	1265.323974609375	-401.7299804687501	12.919584274292	1235.915893554688	-333.6294555664063	123.3100357055664	1258.556640625	-370.7019958496094	-413.8710327148439	1113.107543945313	-873.009216308594	-392.1819152832032	1093.294311523438	-648.9287109375001	-588.8488769531251	1138.069580078125	-740.2423095703126	-592.0717163085939	1107.995483398438	-770.7857666015627	-585.5645751953126	1103.384399414063	-711.7163085937501	-333.8479614257813	865.112243652344	-953.2924804687502	-260.9267272949219	821.2051391601565	-952.2780761718752	-223.990707397461	848.666198730469	-942.263854980469	-254.0843353271485	760.9260253906251	-945.1689453125002	-189.9316558837891	665.0645141601564	-942.7774047851565	-158.3208923339844	644.0886840820314	-829.3501586914065	-108.7231674194336	530.4035644531251	-926.671813964844	-170.5809326171875	485.4914550781251	-972.6592407226565	-129.6495971679688	484.492401123047	-954.8989257812502	-123.229850769043	402.7068786621095	-920.1436157226565	-170.7678527832032	233.8128814697266	-964.8816528320315	-152.0335083007813	227.3653411865235	-878.4053955078127	-231.2110748291016	167.7113189697266	-927.4851074218752	0.7493810653686525	189.2478790283203	-911.1586914062502	-5.243320465087892	197.0378112792969	-953.165222167969	-48.89879989624025	175.281967163086	-1006.952087402344	-400.0241699218751	815.7463989257815	-595.6887207031251	-350.4419860839844	770.7463378906252	-596.1420288085939	-319.9826354980469	780.3264160156252	-602.3499755859376	-361.4394531250001	687.3764038085939	-612.5848999023439	-371.2943420410157	546.4790039062501	-648.1528320312501	-329.7875976562501	549.5261840820314	-760.3273315429689	-322.2808227539063	338.8722229003907	-674.9866943359376	-404.1415405273439	269.8521728515626	-683.2575683593751	-357.9025573730469	263.3018493652344	-678.6289672851564	-334.3034362792969	217.7522583007813	-709.6225585937501	-394.9013671875001	116.7569808959961	-701.7736816406251	-359.9990844726563	146.1050720214844	-779.9636230468752	-456.8162536621095	100.9167633056641	-762.9887084960939	-230.4171905517579	78.6255569458008	-764.4918823242189	-234.8231201171876	74.25426483154298	-718.3189697265626	-292.0464172363282	39.68871307373048	-679.1314697265626	nan	nan	nan	
1578	7.885	-435.5668334960939	1787.705810546875	-598.7952880859376	-586.3671264648439	1746.203735351563	-722.9184570312501	-561.0891723632814	1742.236328125	-583.4368286132814	-592.4282836914064	1586.73193359375	-686.0617065429689	-581.4884643554689	1271.56396484375	-734.0357055664064	-447.7073974609376	1528.63330078125	-696.0390014648439	-499.5043334960939	1601.715942382813	-866.4383544921877	-478.2341308593751	1470.502563476563	-1053.13671875	-434.0909423828126	1490.32861328125	-1061.984619140625	-436.8045043945314	1447.171997070313	-1103.742065429688	-389.9514160156251	1427.121704101563	-1149.98388671875	-386.6260070800782	1352.899780273438	-1104.973754882813	-101.4868545532227	1399.650390625	-1104.26953125	-107.5514526367188	1391.48681640625	-1178.540405273438	-15.50868129730225	1410.921142578125	-1102.286010742188	-466.8441467285157	1556.247314453125	-513.1900634765626	-378.4103698730469	1383.0380859375	-403.0323181152345	-333.9812011718751	1405.14111328125	-402.761199951172	-320.2720031738282	1348.632934570313	-385.9807434082032	-257.7109375000001	1333.559204101563	-375.9125671386719	-268.3469848632813	1281.155639648438	-433.4332275390626	34.97868347167969	1260.807006835938	-400.3736267089845	10.75357437133789	1231.071166992188	-332.4686889648438	121.6008605957032	1252.866088867188	-368.6106567382813	-414.2432250976564	1113.13232421875	-873.2139282226565	-392.0362243652345	1093.514404296875	-649.1774291992189	-588.9025268554689	1138.140869140625	-740.1888427734376	-592.2647094726564	1108.10693359375	-770.6414184570315	-585.6599121093751	1103.58203125	-711.6693725585939	-334.0882568359376	865.3680419921877	-953.6430664062502	-260.9131469726563	821.7044067382815	-952.5601196289065	-223.7271423339844	849.1023559570315	-942.5197753906252	-253.9910583496094	761.4398193359376	-945.5342407226565	-189.6106414794922	665.5473022460939	-943.0554809570315	-157.8721771240235	644.8845214843751	-829.6436767578127	-107.5086517333985	531.2603149414064	-926.6467285156252	-169.431884765625	485.9116821289064	-972.7051391601565	-127.8058471679688	485.546600341797	-955.2869262695315	-121.5447845458985	403.4987792968751	-920.1395263671877	-168.0049743652344	234.2186431884766	-963.7791137695315	-149.3078155517578	228.2766571044922	-878.378601074219	-228.4482421875001	167.4638824462891	-927.1217041015627	3.285800457000733	190.7948760986328	-911.2061767578127	-2.979665040969849	198.953842163086	-953.638366699219	-46.06896972656251	176.8162536621094	-1006.981079101563	-400.0381469726564	815.815124511719	-595.8203735351564	-350.5470581054688	770.8000488281252	-596.2851562500001	-320.0003356933594	780.406188964844	-602.4889526367189	-361.4841003417969	687.4553833007814	-612.7340087890626	-371.6614685058594	546.3097534179689	-648.4515991210939	-330.0362243652344	549.5399169921876	-760.4844970703126	-322.4512939453126	338.9125671386719	-675.0717163085939	-404.2725830078126	269.8265991210938	-683.3204956054689	-358.0459289550782	263.3431701660157	-678.6656494140626	-334.3339843750001	217.8061981201172	-709.6571044921876	-394.9124145507814	116.6920547485352	-701.7071533203126	-359.9423828125001	145.9410247802735	-779.9382324218752	-456.822967529297	100.8541946411133	-762.9268798828126	-230.5262603759766	78.74246215820314	-764.5290527343751	-234.8520812988282	74.49817657470705	-718.2927246093751	-292.1194152832032	39.88868713378907	-679.1077270507814	nan	nan	nan	
1579	7.890000000000001	-434.7144470214845	1787.376220703125	-598.9338378906251	-585.8784790039064	1746.35546875	-722.9844970703126	-560.4221191406251	1742.421508789063	-583.4666137695314	-592.0715332031251	1586.948120117188	-685.9332275390626	-581.3557739257814	1271.704711914063	-734.0039062500001	-447.5988159179689	1528.592529296875	-696.1344604492189	-499.3607482910157	1601.690551757813	-866.6030273437502	-480.3190307617189	1470.083740234375	-1053.0263671875	-435.9948730468751	1489.580688476563	-1062.711547851563	-439.4527587890626	1446.254638671875	-1104.069946289063	-393.1301574707032	1425.750244140625	-1150.8515625	-389.7940979003907	1351.885620117188	-1105.64892578125	-104.08349609375	1397.404174804688	-1108.581298828125	-110.9713897705078	1388.556640625	-1182.729248046875	-18.7706356048584	1408.034057617188	-1107.870727539063	-465.9971618652345	1556.150146484375	-513.1353759765626	-378.6950683593751	1381.762084960938	-403.3236083984376	-334.1604003906251	1403.555786132813	-402.8044433593751	-320.9299926757813	1346.9306640625	-386.2489318847657	-258.5199279785157	1331.41015625	-376.0183105468751	-269.1752319335938	1279.367309570313	-433.8575744628907	33.59751510620118	1256.403076171875	-398.8541259765626	8.715263366699221	1226.4599609375	-331.5277404785157	119.9228744506836	1247.299194335938	-366.3540039062501	-414.6310424804689	1113.0869140625	-873.4140625000002	-392.0556640625001	1093.648681640625	-649.4772338867189	-588.9566040039064	1138.2802734375	-740.1331787109376	-592.3812255859376	1108.251586914063	-770.5324707031252	-585.6997680664064	1103.70556640625	-711.6355590820314	-334.2822570800782	865.6560058593752	-954.050231933594	-260.8436584472657	822.3809814453127	-952.8338012695315	-223.8666687011719	849.814392089844	-942.7969970703127	-253.9263916015626	761.9484252929689	-945.8587036132815	-189.2339019775391	666.0326538085939	-943.362731933594	-157.3687591552735	645.6789550781251	-830.1461181640627	-106.3931121826172	532.3063964843751	-926.9824218750002	-167.7030792236328	486.9410095214845	-972.6821899414065	-127.9191513061524	485.7679443359376	-955.2649536132815	-119.4751052856446	404.4171752929689	-920.1777954101565	-164.9900665283203	234.8157043457032	-963.4622802734377	-146.2187957763672	228.9545440673829	-878.0864257812502	-225.0614166259766	167.7995300292969	-926.6605224609377	6.376039981842043	192.7474822998047	-911.283142089844	0.01205357629805804	200.5372314453126	-953.801940917969	-43.12791061401368	178.2587432861328	-1006.836181640625	-400.0585021972657	815.8479614257815	-595.9495849609376	-350.5985412597657	770.8446044921877	-596.3965454101564	-320.0480346679688	780.4473876953127	-602.5791625976564	-361.6312255859376	687.5282592773439	-612.8411865234376	-371.8197326660157	546.3277587890626	-648.5433959960939	-330.3054199218751	549.6189575195314	-760.6494750976564	-322.6616210937501	338.9494018554688	-675.1575927734376	-404.4449157714845	269.8502807617188	-683.3687133789064	-358.1846923828126	263.3894348144532	-678.6741943359376	-334.4065551757813	217.7601623535157	-709.6369628906251	-394.9593200683595	116.7025451660157	-701.7447509765626	-360.0755920410157	145.9734497070313	-779.911804199219	-456.8038024902345	100.6993026733399	-762.8630981445314	-230.5322875976563	78.90509033203126	-764.4816284179689	-234.8681640625001	74.67224884033205	-718.2419433593751	-292.1638793945313	39.87198638916016	-679.1327514648439	nan	nan	nan	
1580	7.895	-433.9666137695314	1787.148559570313	-599.0748291015626	-585.2844238281251	1746.479125976563	-723.0145874023439	-559.7697143554689	1742.571533203125	-583.5241088867189	-591.7082519531251	1587.143432617188	-685.8979492187501	-581.3113403320314	1271.829711914063	-734.0355834960939	-447.2362365722657	1528.509155273438	-696.3165283203126	-499.3006896972657	1601.702514648438	-866.7850341796877	-482.3176574707032	1469.304931640625	-1053.164672851563	-437.8876342773439	1488.73828125	-1063.381225585938	-442.0736083984376	1445.28125	-1104.48583984375	-396.2619934082032	1424.6318359375	-1151.80078125	-392.671356201172	1350.99462890625	-1106.26318359375	-106.8941268920899	1394.891235351563	-1112.83544921875	-114.5174331665039	1385.7138671875	-1186.81298828125	-21.3634090423584	1405.105102539063	-1113.165771484375	-465.2210388183595	1556.16943359375	-513.0419921875001	-379.0031738281251	1380.678466796875	-403.5335998535157	-334.2872619628907	1402.060546875	-402.9587707519532	-321.5119323730469	1345.2529296875	-386.6854553222657	-259.0979003906251	1329.35888671875	-376.4535217285157	-270.0367431640626	1277.552978515625	-434.4001464843751	32.17779922485352	1251.782592773438	-397.1600341796876	6.504936218261721	1221.776611328125	-330.4205017089844	118.4063110351563	1241.809448242188	-364.2256469726563	-414.9004821777345	1113.100830078125	-873.7124023437502	-392.0411071777345	1093.752563476563	-649.6531982421876	-588.9830322265626	1138.426635742188	-740.1031494140626	-592.5610961914064	1108.346801757813	-770.4589843750002	-585.8094482421876	1103.819091796875	-711.6004028320314	-334.4107666015626	866.0484008789065	-954.5295410156252	-260.8939208984376	823.0308837890627	-953.0825195312502	-223.8530883789063	850.5063476562502	-943.1333618164065	-253.5876770019532	762.4953002929689	-946.1325683593752	-188.7922821044922	666.7672729492189	-943.7229614257815	-156.5490112304688	646.6770629882814	-830.5391845703127	-105.0824050903321	533.0160522460939	-927.2446899414065	-166.057373046875	487.7098388671876	-972.8247680664065	-125.2610244750977	487.0372314453126	-955.244079589844	-117.3723297119141	405.464080810547	-920.0432739257815	-161.8841094970703	235.351791381836	-963.2750244140627	-142.5320434570313	229.2341003417969	-877.9812622070315	-221.3830261230469	168.0399627685547	-926.2011718750002	10.09379673004151	194.8750305175782	-911.5712890625002	3.94863510131836	202.4168090820313	-953.6467285156252	-39.76123809814454	180.1247253417969	-1006.941223144531	-400.156707763672	815.9736938476565	-596.0849609375001	-350.6753845214844	770.9636230468752	-596.4674682617189	-320.1289978027344	780.514099121094	-602.6206054687501	-361.7962341308594	687.6897583007814	-612.9258422851564	-371.8492736816407	546.5794677734376	-648.5380859375001	-330.5913696289063	549.7055053710939	-760.7731323242189	-322.8388977050782	339.0440673828126	-675.1312866210939	-404.6554260253907	270.0182495117188	-683.4285278320314	-358.2714538574219	263.5188598632813	-678.6488647460939	-334.4801635742188	217.7358093261719	-709.6622314453126	-395.0034484863282	116.6723251342774	-701.6997680664064	-360.1418762207032	145.9749603271485	-779.873962402344	-456.8066406250001	100.6366424560547	-762.7351074218751	-230.5872802734376	79.07271575927736	-764.4729003906251	-234.8543243408204	74.8689651489258	-718.1795654296876	-292.1095275878907	39.89857482910157	-679.2062377929689	nan	nan	nan	
